PathFileType	4	(X/Y/Z)	Patient5_TMGait_0pt45_1_left_04.trc.trc
DataRate	CameraRate	NumFrames	NumMarkers	Units	OrigDataRate	OrigDataStartFrame	OrigNumFrames
58.823529411765	58.823529411765	4	32	mm	58.823529411765	1	       141
Frame#	Time	R.ASIS			L.ASIS			Chest			R.Shoulder			Neck			L.Shoulder			L.Elbow			L.Wrist			R.Elbow			R.Wrist			L.Thigh.Superior			L.Thigh.Lateral			L.Thigh.Inferior			L.Patella			L.Shank.Superior			L.Shank.Lateral			L.Shank.Inferior			L.Heel			L.Midfoot.Lateral			L.Midfoot.Superior			L.Toe			R.Thigh.Superior			R.Thigh.Lateral			R.Thigh.Inferior			R.Patella			R.Shank.Superior			R.Shank.Lateral			R.Shank.Inferior			R.Heel			R.Midfoot.Lateral			R.Midfoot.Superior			R.Toe			
		X1	Y1	Z1	X2	Y2	Z2	X3	Y3	Z3	X4	Y4	Z4	X5	Y5	Z5	X6	Y6	Z6	X7	Y7	Z7	X8	Y8	Z8	X9	Y9	Z9	X10	Y10	Z10	X11	Y11	Z11	X12	Y12	Z12	X13	Y13	Z13	X14	Y14	Z14	X15	Y15	Z15	X16	Y16	Z16	X17	Y17	Z17	X18	Y18	Z18	X19	Y19	Z19	X20	Y20	Z20	X21	Y21	Z21	X22	Y22	Z22	X23	Y23	Z23	X24	Y24	Z24	X25	Y25	Z25	X26	Y26	Z26	X27	Y27	Z27	X28	Y28	Z28	X29	Y29	Z29	X30	Y30	Z30	X31	Y31	Z31	X32	Y32	Z32	

1	5.100000000000	957.147360337180	970.340546264373	594.003892646292	933.603956255934	956.992518882217	354.857701391866	997.989569277181	1432.310400779983	517.418444827589	902.559465904325	1479.198131669721	692.614701921055	861.297783459099	1548.125484178507	513.642410024260	925.785752003639	1509.788193895070	327.859681904559	836.560576604847	1203.448357683745	179.998413672204	941.735189796140	936.360823630031	158.419552179434	836.973676011937	1149.426011965435	815.707166261284	1054.128677757118	971.358365597227	742.618697986011	961.989974192470	735.992873952531	317.627349879746	888.994250181801	666.307445195574	277.412906906374	974.096216616948	606.080709570988	320.060694646317	962.299992614051	460.981358670129	309.981439873402	860.554466657233	388.015892567201	340.062009592103	758.759986960300	379.147890371932	270.227488831107	760.048952456031	314.289521702000	356.339728983379	509.156786725453	226.922689611655	364.349045953230	553.000698358687	141.184828163218	310.228819952329	667.154389991527	121.882161896463	346.295152954296	715.685347938162	39.952226950529	360.616964008785	980.112134342039	742.956857567451	608.101331347357	898.887762174420	660.060861150832	661.601861916389	977.589537889104	614.312008208663	581.937277503590	982.797535901900	517.393231250423	607.388501306080	945.648157275204	419.253731137770	567.561433173849	881.141716161103	344.232518131494	648.073748436286	936.868904385112	279.938087016991	561.445626294275	827.027886875113	52.942740182702	517.377512206299	900.496906933985	24.636970168800	595.965971601493	1007.945468934613	88.223025737194	577.970409841870	1111.389882713582	43.615842169173	585.885942472928	
2	5.117000000000	956.963561454464	969.565331165308	595.728375757285	931.479099881471	956.021721091388	358.020871024267	999.085480146512	1431.037413622797	518.678859977011	905.413157829308	1477.733842753681	694.738431988764	862.622574634359	1547.125829137091	516.383870146621	925.084310643268	1509.199635225766	329.898395314604	831.994143882295	1202.815890129279	183.909223592864	938.655653016541	936.513174914192	160.527857206273	844.470092721276	1148.157685366351	820.228567193680	1061.611732247201	970.615477286357	746.572045146356	968.384975526906	740.681044491304	318.033293890572	898.968543718071	668.523744774726	277.138320481267	986.985498150366	612.046343801649	319.390369351901	980.570022574219	465.801417065165	308.992405899477	877.481285485675	392.279772531841	338.619493206250	776.382197281312	385.229710750560	267.944696776868	774.778045440179	321.364873611282	354.688504028502	523.636806085342	243.337399887628	361.201610620919	563.654511246283	155.594061067080	307.445170772864	676.698531163384	130.982266491986	344.730651884803	719.478171047925	41.127350425409	358.852089106643	975.170946089470	741.055397217338	609.776486480936	891.998717973903	659.959007778106	663.596176698170	968.735773193076	612.720908868650	583.173697380470	972.306446910702	516.244940654432	608.134138420045	934.614284512382	419.531928787039	568.459762217112	871.303834802441	344.408140480820	649.251596375426	927.139823437195	280.517961257018	562.130275844186	818.821225775570	52.925969497981	517.447906306768	892.267936384164	24.596917325491	596.057049173577	999.671715642535	88.206087356196	578.001489806683	1103.192199300890	43.672745213061	585.884622279276	
3	5.134000000000	956.682300856044	968.881574777015	597.691585621819	929.467711913248	955.196301158295	361.096841863277	1000.153101415697	1429.880869070747	519.762173155470	908.253010024377	1476.399787292239	696.671647677536	863.935443572100	1546.238383412885	518.918999061546	924.338370862097	1508.711973470572	331.768827511298	827.642514959777	1202.187247971233	187.742984524805	935.705261648799	936.622325883761	162.645980590456	851.830074242884	1147.042117607658	824.483268235300	1068.858867981297	969.760644314840	750.512628444217	974.549818764819	745.482293278688	318.816306083522	908.705845767695	670.972031130858	277.147436049975	999.450349082790	618.182951568752	319.156330764882	998.313426260729	470.833134865151	308.294613427858	894.003445145770	396.640295838955	337.396380830162	793.584965398709	391.217227164572	265.948580961755	789.355052072793	328.192798664900	353.209257609035	537.820765186229	258.069797420691	358.298940280057	574.867584261093	168.794979169225	304.689923871505	686.996288183478	139.705195433999	343.130842197578	725.029794626027	42.877734606554	356.870711526045	970.342705966258	739.285932152148	611.495296515234	885.368594880838	659.863303619044	665.574072558390	960.311869213045	611.245218287299	584.481442630501	962.346722037572	515.170969645297	608.978244142721	924.092698063814	419.777708635117	569.402801290930	861.809146028195	344.578896936387	650.414632613301	917.737382231387	281.034705012373	562.842165178590	810.707330702038	52.929507637946	517.538680255145	884.132003023576	24.562228074650	596.158949459894	991.495214376133	88.189865357384	578.044450252094	1095.087562327581	43.736852090898	585.884009555338	
4	5.151000000000	956.205370677853	968.363707697377	600.009417804891	927.647367534499	954.651583767628	363.988430138714	1001.180230793979	1428.921567400275	520.539708718873	911.071218866005	1475.331710759291	698.256465571243	865.240763106332	1545.561719177728	521.063826887906	923.571979957512	1508.371910833073	333.326213691273	823.716650954483	1201.561904073870	191.389997548057	933.029021937413	936.646414626064	164.787839944197	858.880590395171	1146.247980845555	828.272579782842	1075.635302745616	968.796417727449	754.385578905539	980.249093434899	750.471778542733	320.231145269555	917.953705503155	673.831160097004	277.636058351466	1011.077944804645	624.606182693194	319.679156509311	1015.061337078940	476.265558316876	308.129799959004	909.837037346745	401.136847900862	336.584719203377	810.049244695524	396.910170322664	264.489635285524	803.757055820641	334.429357707384	352.053222658283	551.720495732249	269.416057571187	355.866746868956	587.314263300284	179.547145596170	301.992388380614	698.891022789166	147.557887033574	341.435103641047	734.045886457940	45.508342415690	354.419971718654	965.748048326412	737.755526379909	613.266419624101	879.219071215854	659.778665617974	667.491268754614	952.680210196741	609.967419732980	585.889679719002	953.351017755797	514.224850930631	609.973492794198	914.504396458793	419.959204082114	570.397957420050	852.936638967174	344.742621498751	651.530470653996	908.914715109309	281.434782306810	563.583216597249	802.729733386066	52.963365029243	517.657612426021	876.135642015565	24.541381437441	596.275081788794	983.468488810317	88.174441184028	578.105587477208	1087.125416943126	43.813801804098	585.885417457921	
